<?xml version="1.0" encoding="iso-8859-1"?>
<!-- Uploaded to: SVG Repo, www.svgrepo.com, Generator: SVG Repo Mixer Tools -->
<svg fill="#000000" height="800px" width="800px" version="1.1" id="Layer_1" xmlns="http://www.w3.org/2000/svg" xmlns:xlink="http://www.w3.org/1999/xlink" 
	 viewBox="0 0 512 512" xml:space="preserve">
<g>
	<g>
		<path d="M234.213,0H8.17C3.658,0,0,3.657,0,8.17v226.043c0,4.513,3.658,8.17,8.17,8.17h226.043c4.512,0,8.17-3.657,8.17-8.17V8.17
			C242.383,3.657,238.725,0,234.213,0z M226.043,226.043H16.34V16.34h209.702V226.043z"/>
	</g>
</g>
<g>
	<g>
		<path d="M503.83,269.617H277.787c-4.512,0-8.17,3.657-8.17,8.17V503.83c0,4.513,3.658,8.17,8.17,8.17H503.83
			c4.512,0,8.17-3.657,8.17-8.17V277.787C512,273.274,508.342,269.617,503.83,269.617z M495.66,495.66H285.957V285.957H495.66
			V495.66z"/>
	</g>
</g>
<g>
	<g>
		<path d="M503.83,0H277.787c-4.512,0-8.17,3.657-8.17,8.17v96.681c0,4.513,3.658,8.17,8.17,8.17s8.17-3.657,8.17-8.17V16.34H495.66
			v209.702H285.957v-88.511c0-4.513-3.658-8.17-8.17-8.17s-8.17,3.657-8.17,8.17v96.681c0,4.513,3.658,8.17,8.17,8.17H503.83
			c4.512,0,8.17-3.657,8.17-8.17V8.17C512,3.657,508.342,0,503.83,0z"/>
	</g>
</g>
<g>
	<g>
		<path d="M234.213,269.617H8.17c-4.512,0-8.17,3.657-8.17,8.17v96.681c0,4.513,3.658,8.17,8.17,8.17s8.17-3.657,8.17-8.17v-88.511
			h209.702V495.66H16.34v-88.511c0-4.513-3.658-8.17-8.17-8.17S0,402.636,0,407.149v96.681c0,4.513,3.658,8.17,8.17,8.17h226.043
			c4.512,0,8.17-3.657,8.17-8.17V277.787C242.383,273.274,238.725,269.617,234.213,269.617z"/>
	</g>
</g>
</svg>